<?xml version="1.0" encoding="utf-8"?>
<!-- Generator: Adobe Illustrator 21.0.0, SVG Export Plug-In . SVG Version: 6.00 Build 0)  -->
<svg version="1.1" id="Layer_1_copy_2" xmlns="http://www.w3.org/2000/svg" xmlns:xlink="http://www.w3.org/1999/xlink" x="0px"
	 y="0px" width="600px" height="600px" viewBox="0 0 600 600" style="enable-background:new 0 0 600 600;" xml:space="preserve">
<g>
	<path d="M506.52,179.538H93.48c-6.627,0-12,5.373-12,12V530c0,6.627,5.373,12,12,12h413.04c6.626,0,12-5.373,12-12V191.538
		C518.52,184.911,513.147,179.538,506.52,179.538z M105.48,203.538H288v145.231H105.48V203.538z M105.48,518V372.769H288V518H105.48
		z M494.52,518H312V372.769h182.52V518z M494.52,348.769H312V203.538h182.52V348.769z"/>
	<g>
		<g>
			<path d="M305.607,205.525c-1.033,0-2.076-0.133-3.105-0.409c0,0-112.417-30.114-114.339-30.628
				c-14.537-3.833-27.637-14.452-35.94-29.137c-7.691-13.6-9.614-29.395-5.414-44.475c4.206-15.1,14.036-27.646,27.681-35.33
				C183.256,60.609,193.195,58,203.23,58c24.066,0,41.928,8.99,53.09,26.724c0.077,0.122,0.151,0.244,0.223,0.369L315.985,187.5
				c2.439,4.202,2.104,9.459-0.849,13.318C312.831,203.83,309.284,205.525,305.607,205.525z M194.292,151.283
				c0.416,0.111,5.872,1.572,86.348,23.13L235.902,97.34C229.237,86.875,218.849,82,203.23,82c-5.919,0-11.786,1.542-16.965,4.458
				c-8.052,4.534-13.853,11.941-16.336,20.857c-2.478,8.896-1.347,18.209,3.184,26.222
				C178.252,142.625,185.972,149.093,194.292,151.283L194.292,151.283z"/>
		</g>
		<g>
			<path d="M294.393,205.525c-3.678,0-7.224-1.694-9.529-4.707c-2.953-3.858-3.289-9.116-0.85-13.318l59.444-102.408
				c0.071-0.124,0.146-0.247,0.223-0.369C354.842,66.992,372.704,58,396.768,58c0.002,0,0.002,0,0.003,0
				c10.036,0,19.974,2.609,28.74,7.546c13.645,7.683,23.476,20.23,27.681,35.33c4.2,15.08,2.277,30.875-5.414,44.476
				c-8.307,14.691-21.414,25.313-35.96,29.142c-0.668,0.178-114.32,30.623-114.32,30.623
				C296.469,205.391,295.426,205.525,294.393,205.525z M364.099,97.339l-44.737,77.074c86.32-23.124,86.34-23.128,86.421-23.149
				c8.246-2.17,15.966-8.639,21.104-17.726c4.531-8.014,5.662-17.326,3.185-26.223c-2.483-8.916-8.285-16.323-16.336-20.857
				C408.556,83.542,402.689,82,396.771,82C381.151,82,370.764,86.875,364.099,97.339z"/>
		</g>
	</g>
</g>
</svg>
